<?xml version="1.0" encoding="UTF-8"?>
<svg width="594px" height="327px" viewBox="0 0 594 327" version="1.1" xmlns="http://www.w3.org/2000/svg" xmlns:xlink="http://www.w3.org/1999/xlink">
    <defs>
        <polygon id="path-1" points="0 326.937 593.984 326.937 593.984 0 0 0"></polygon>
    </defs>
    <g id="Page-1" stroke="none" stroke-width="0" fill="currentColor" fill-rule="evenodd">
        <g id="Group-20">
            <path d="M593.4845,192.3383 L495.1015,192.3383 L495.1015,228.1753 C495.1015,232.8983 498.9295,236.7263 503.6525,236.7263 L534.9865,236.7263 C534.9865,236.7263 539.0735,249.5593 533.9725,258.3713 C525.2995,273.3543 526.7705,307.9263 526.7705,307.9263 L569.2185,307.9263 C569.2185,307.9263 568.6275,287.8343 570.5525,281.4143 C571.9815,276.6493 574.8185,272.3253 577.1425,265.2643 C580.2455,255.8403 578.9075,236.7263 578.9075,236.7263 L593.4845,236.7263 L593.4845,192.3383 Z" id="Fill-1" fill="#010202"></path>
            <path d="M593.4845,192.3383 L495.1015,192.3383 L495.1015,228.1753 C495.1015,232.8983 498.9295,236.7263 503.6525,236.7263 L534.9865,236.7263 C534.9865,236.7263 539.0735,249.5593 533.9725,258.3713 C525.2995,273.3543 526.7705,307.9263 526.7705,307.9263 L569.2185,307.9263 C569.2185,307.9263 568.6275,287.8343 570.5525,281.4143 C571.9815,276.6493 574.8185,272.3253 577.1425,265.2643 C580.2455,255.8403 578.9075,236.7263 578.9075,236.7263 L593.4845,236.7263 L593.4845,192.3383 Z" id="Stroke-3" stroke="#010202"></path>
            <mask id="mask-2" fill="white">
                <use xlink:href="#path-1"></use>
            </mask>
            <g id="Clip-6"></g>
            <polygon id="Fill-5" fill="#010202" mask="url(#mask-2)" points="417.186 307.925 464.699 307.925 464.699 110.586 417.186 110.586"></polygon>
            <polygon id="Stroke-7" stroke="#010202" mask="url(#mask-2)" points="417.186 307.925 464.699 307.925 464.699 110.586 417.186 110.586"></polygon>
            <polygon id="Fill-8" fill="#010202" mask="url(#mask-2)" points="1.296 314.105 48.81 314.105 48.81 69.583 1.296 69.583"></polygon>
            <polygon id="Stroke-9" stroke="#010202" mask="url(#mask-2)" points="1.296 314.105 48.81 314.105 48.81 69.583 1.296 69.583"></polygon>
            <path d="M309.2784,174.976 L277.2054,196.552 L293.2424,224.543 L279.5384,298.019 L316.2764,307.925 L330.2714,232.707 C330.2714,232.707 350.1184,241.451 345.4334,261.865 C344.6604,265.233 333.1874,268.279 333.1874,268.279 L332.0204,303.851 L379.8394,304.434 C379.8394,304.434 387.5724,236.316 377.7524,216.696 C365.5604,192.338 318.0254,187.222 318.0254,187.222 L309.2784,174.976 Z" id="Fill-10" fill="#010202" mask="url(#mask-2)"></path>
            <path d="M309.2784,174.976 L277.2054,196.552 L293.2424,224.543 L279.5384,298.019 L316.2764,307.925 L330.2714,232.707 C330.2714,232.707 350.1184,241.451 345.4334,261.865 C344.6604,265.233 333.1874,268.279 333.1874,268.279 L332.0204,303.851 L379.8394,304.434 C379.8394,304.434 387.5724,236.316 377.7524,216.696 C365.5604,192.338 318.0254,187.222 318.0254,187.222 L309.2784,174.976 Z" id="Stroke-11" stroke="#010202" mask="url(#mask-2)"></path>
            <polygon id="Fill-12" fill="#010202" mask="url(#mask-2)" points="239.6984 239.4076 197.7474 245.4276 194.3644 182.1626 236.7754 176.6786"></polygon>
            <polygon id="Stroke-13" stroke="#010202" mask="url(#mask-2)" points="239.6984 239.4076 197.7474 245.4276 194.3644 182.1626 236.7754 176.6786"></polygon>
            <path d="M107.0792,187.5756 L150.7222,185.8846 C150.7222,185.8846 160.6452,262.4796 154.1042,279.5966 C143.2782,307.9256 98.6212,326.2846 98.6212,326.2846 L80.0142,280.9506 C80.0142,280.9506 105.9342,262.8586 110.1242,252.8706 C116.5692,237.5046 107.0792,187.5756 107.0792,187.5756" id="Fill-14" fill="#010202" mask="url(#mask-2)"></path>
            <path d="M107.0792,187.5756 L150.7222,185.8846 C150.7222,185.8846 160.6452,262.4796 154.1042,279.5966 C143.2782,307.9256 98.6212,326.2846 98.6212,326.2846 L80.0142,280.9506 C80.0142,280.9506 105.9342,262.8586 110.1242,252.8706 C116.5692,237.5046 107.0792,187.5756 107.0792,187.5756 Z" id="Stroke-15" stroke="#010202" mask="url(#mask-2)"></path>
            <path d="M49.6056,25.0521 C49.6056,38.6131 38.6136,49.6051 25.0526,49.6051 C11.4926,49.6051 0.5006,38.6131 0.5006,25.0521 C0.5006,11.4921 11.4926,0.4991 25.0526,0.4991 C38.6136,0.4991 49.6056,11.4921 49.6056,25.0521" id="Fill-16" fill="#010202" mask="url(#mask-2)"></path>
            <path d="M49.6056,25.0521 C49.6056,38.6131 38.6136,49.6051 25.0526,49.6051 C11.4926,49.6051 0.5006,38.6131 0.5006,25.0521 C0.5006,11.4921 11.4926,0.4991 25.0526,0.4991 C38.6136,0.4991 49.6056,11.4921 49.6056,25.0521 Z" id="Stroke-17" stroke="#010202" mask="url(#mask-2)"></path>
            <path d="M465.4962,69.5824 C465.4962,83.1434 454.5032,94.1354 440.9432,94.1354 C427.3832,94.1354 416.3902,83.1434 416.3902,69.5824 C416.3902,56.0224 427.3832,45.0294 440.9432,45.0294 C454.5032,45.0294 465.4962,56.0224 465.4962,69.5824" id="Fill-18" fill="#010202" mask="url(#mask-2)"></path>
            <path d="M465.4962,69.5824 C465.4962,83.1434 454.5032,94.1354 440.9432,94.1354 C427.3832,94.1354 416.3902,83.1434 416.3902,69.5824 C416.3902,56.0224 427.3832,45.0294 440.9432,45.0294 C454.5032,45.0294 465.4962,56.0224 465.4962,69.5824 Z" id="Stroke-19" stroke="#010202" mask="url(#mask-2)"></path>
        </g>
    </g>
</svg>